<svg width="56" height="57" viewBox="0 0 56 57" fill="none" xmlns="http://www.w3.org/2000/svg">
<path d="M24.08 33.309L17.99 27.219C17.4767 26.7057 16.8355 26.4612 16.0664 26.4854C15.2955 26.5078 14.6533 26.7757 14.14 27.289C13.6267 27.8024 13.37 28.4557 13.37 29.249C13.37 30.0424 13.6267 30.6957 14.14 31.209L22.12 39.189C22.6333 39.7024 23.2867 39.959 24.08 39.959C24.8733 39.959 25.5267 39.7024 26.04 39.189L41.93 23.299C42.4433 22.7857 42.6888 22.1436 42.6664 21.3726C42.6421 20.6036 42.3733 19.9624 41.86 19.449C41.3467 18.9357 40.6933 18.679 39.9 18.679C39.1067 18.679 38.4533 18.9357 37.94 19.449L24.08 33.309ZM28 56.269C24.1267 56.269 20.4867 55.5336 17.08 54.0626C13.6733 52.5936 10.71 50.599 8.19 48.079C5.67 45.559 3.67547 42.5957 2.2064 39.189C0.735467 35.7824 0 32.1424 0 28.269C0 24.3957 0.735467 20.7557 2.2064 17.349C3.67547 13.9424 5.67 10.979 8.19 8.45904C10.71 5.93904 13.6733 3.94358 17.08 2.47264C20.4867 1.00358 24.1267 0.269043 28 0.269043C31.8733 0.269043 35.5133 1.00358 38.92 2.47264C42.3267 3.94358 45.29 5.93904 47.81 8.45904C50.33 10.979 52.3245 13.9424 53.7936 17.349C55.2645 20.7557 56 24.3957 56 28.269C56 32.1424 55.2645 35.7824 53.7936 39.189C52.3245 42.5957 50.33 45.559 47.81 48.079C45.29 50.599 42.3267 52.5936 38.92 54.0626C35.5133 55.5336 31.8733 56.269 28 56.269ZM28 50.669C34.2067 50.669 39.4921 48.4878 43.8564 44.1254C48.2188 39.7612 50.4 34.4757 50.4 28.269C50.4 22.0624 48.2188 16.7769 43.8564 12.4126C39.4921 8.05024 34.2067 5.86904 28 5.86904C21.7933 5.86904 16.5088 8.05024 12.1464 12.4126C7.78213 16.7769 5.6 22.0624 5.6 28.269C5.6 34.4757 7.78213 39.7612 12.1464 44.1254C16.5088 48.4878 21.7933 50.669 28 50.669Z" fill="#759A31"/>
</svg>
