<svg width="32" height="32" viewBox="0 0 32 32" fill="none" xmlns="http://www.w3.org/2000/svg">
<circle cx="16" cy="16.3882" r="15.5" fill="#3D6111"/>
<path d="M26.2018 16.3025C26.2018 10.5507 21.5677 5.88818 15.8522 5.88818C10.134 5.88948 5.5 10.5507 5.5 16.3037C5.5 21.5005 9.28536 25.8085 14.2325 26.5899V19.3129H11.6063V16.3037H14.235V14.0074C14.235 11.398 15.781 9.95686 18.1446 9.95686C19.2779 9.95686 20.4616 10.16 20.4616 10.16V12.7215H19.1563C17.8716 12.7215 17.4706 13.5249 17.4706 14.349V16.3025H20.34L19.882 19.3116H17.4693V26.5886C22.4164 25.8073 26.2018 21.4992 26.2018 16.3025Z" fill="#F7FDEF"/>
</svg>
