<svg width="40" height="39" viewBox="0 0 40 39" fill="none" xmlns="http://www.w3.org/2000/svg">
<path d="M16.3542 10.3306C7.90036 10.1073 -2.04548 0.889668 1.31727 10.7417C3.25271 16.4056 9.79696 19.1663 16.3542 19.0822C22.9114 19.1663 29.4556 16.4088 31.3911 10.7417C34.7538 0.889668 24.808 10.1073 16.3542 10.3306Z" fill="#E59600"/>
<path d="M16.435 27.4033H13.548V30.8599C13.548 32.4231 14.7229 33.6886 16.1729 33.6886H16.6972C18.1471 33.6886 19.322 32.4199 19.322 30.8599V27.4033H16.435ZM25.0409 14.8132H7.66728C5.79333 14.8132 4.26245 16.4444 4.26245 18.4413C4.26245 20.4383 5.79333 22.0695 7.66728 22.0695H25.0442C26.9181 22.0695 28.449 20.4383 28.449 18.4413C28.449 16.4444 26.9149 14.8132 25.0409 14.8132Z" fill="#7A4C32"/>
<path d="M16.3539 2.29758C10.8195 2.29758 5.69604 8.21395 5.69604 16.7292C5.69604 25.1992 10.9748 29.3841 16.3539 29.3841C21.733 29.3841 27.0118 25.1992 27.0118 16.7292C27.0118 8.21395 21.8884 2.29758 16.3539 2.29758Z" fill="#A56C43"/>
<path d="M8.97489 14.8326C9.92967 13.4765 12.1078 13.3503 13.3539 14.3568C13.5513 14.5154 13.8135 14.742 13.8944 14.9912C14.0206 15.399 13.6323 15.7162 13.2503 15.6191C13.0076 15.5576 12.781 15.4281 12.5383 15.3537C12.1014 15.2145 11.7842 15.1789 11.3893 15.1757C10.8068 15.1724 10.4313 15.2469 9.87788 15.4702C9.65133 15.564 9.46361 15.7097 9.20469 15.6029C8.90693 15.4799 8.79688 15.1012 8.97489 14.8326ZM23.1023 15.6029C23.0085 15.564 22.9211 15.509 22.8272 15.4702C22.2576 15.2307 21.9339 15.1724 21.3158 15.1757C20.772 15.1789 20.4451 15.2533 20.0244 15.399C19.7622 15.4896 19.4353 15.7129 19.1473 15.6255C18.7265 15.4961 18.7395 15.0365 18.9693 14.742C19.2444 14.3957 19.6198 14.1335 20.0244 13.9587C20.9533 13.5574 22.0893 13.6124 22.9632 14.1335C23.2512 14.305 23.5619 14.5381 23.7334 14.8326C23.9729 15.2501 23.5943 15.8036 23.1023 15.6029Z" fill="#42312C"/>
<path d="M11.4022 19.0983C12.2673 19.0983 12.9686 18.3723 12.9686 17.4768C12.9686 16.5813 12.2673 15.8553 11.4022 15.8553C10.537 15.8553 9.83569 16.5813 9.83569 17.4768C9.83569 18.3723 10.537 19.0983 11.4022 19.0983Z" fill="#42312C"/>
<path d="M21.306 19.0983C22.1711 19.0983 22.8725 18.3723 22.8725 17.4768C22.8725 16.5813 22.1711 15.8553 21.306 15.8553C20.4408 15.8553 19.7395 16.5813 19.7395 17.4768C19.7395 18.3723 20.4408 19.0983 21.306 19.0983Z" fill="#42312C"/>
<path d="M19.0661 22.9887C18.0531 23.5907 14.7324 23.5907 13.7194 22.9887C13.1368 22.6424 12.5445 23.1732 12.784 23.7007C13.0203 24.2218 14.8328 25.4258 16.3992 25.4258C17.9657 25.4258 19.7523 24.2218 19.9918 23.7007C20.2345 23.1699 19.6487 22.6424 19.0661 22.9887Z" fill="#473530"/>
<path d="M17.5804 20.4156C17.5481 20.4027 17.5125 20.3929 17.4769 20.3897H15.2307C15.1951 20.3929 15.1628 20.4027 15.1272 20.4156C14.9233 20.4997 14.81 20.7101 14.9071 20.9334C15.0042 21.1568 15.4508 21.7879 16.3538 21.7879C17.2568 21.7879 17.7034 21.1568 17.8005 20.9334C17.8976 20.7101 17.7843 20.4997 17.5804 20.4156Z" fill="#875334"/>
<path d="M27.9732 16.6968L27.9279 16.8133L27.889 16.9169L27.779 17.1985C27.7693 17.2276 27.7596 17.2535 27.7466 17.2826L27.0119 19.1598C26.9699 19.2699 26.8113 19.2602 26.7854 19.1436C26.7433 18.9624 26.6883 18.7229 26.6236 18.4381C26.5524 18.1112 26.4617 17.7228 26.3646 17.3021C26.1769 16.4962 25.9568 15.564 25.7335 14.6643C25.6105 14.1788 25.4908 13.6998 25.3743 13.2564C25.2739 12.8874 25.1801 12.5444 25.0894 12.2401C25.0085 11.9618 24.9309 11.7126 24.8597 11.5087C24.837 11.4375 24.8143 11.3727 24.7917 11.3145C24.4583 10.4277 23.5392 9.91307 22.607 10.0814C21.1765 10.3403 18.898 10.6639 16.38 10.6639C16.3735 10.6639 16.3638 10.6607 16.3541 10.6607C16.3444 10.6607 16.3379 10.6639 16.3282 10.6639C13.8134 10.6639 11.5316 10.3403 10.1011 10.0814C9.16898 9.91307 8.2498 10.4277 7.91644 11.3145C7.68665 11.923 7.36623 13.101 7.04582 14.3795C7.00698 14.5348 6.96814 14.6902 6.9293 14.8488C6.86781 15.0883 6.80955 15.3342 6.75129 15.577C6.70275 15.7712 6.65743 15.9654 6.61212 16.1563C6.60889 16.1596 6.60889 16.1628 6.60889 16.1693C6.56358 16.357 6.51826 16.5447 6.47619 16.7292C6.47295 16.7357 6.47295 16.7389 6.47295 16.7421C6.42764 16.9266 6.38557 17.1079 6.34673 17.2794C6.26258 17.6387 6.1849 17.9753 6.11693 18.2698C6.06839 18.4834 6.02308 18.6743 5.98747 18.8426C5.96158 18.9559 5.93893 19.0595 5.91951 19.1469C5.91627 19.1631 5.9098 19.176 5.90332 19.1857C5.89335 19.2061 5.87763 19.2232 5.85808 19.2348C5.83854 19.2464 5.81603 19.252 5.79333 19.251C5.77063 19.25 5.74872 19.2423 5.73031 19.229C5.7119 19.2157 5.69779 19.1972 5.68971 19.176C5.46639 18.6064 5.04241 17.4962 4.84498 16.9784L4.82232 16.9169C4.79967 16.8587 4.78025 16.8101 4.7673 16.7745L4.73817 16.6968C4.73817 16.6968 4.40158 14.8229 4.50514 12.3275C4.50838 12.2466 4.51162 12.1625 4.51809 12.0783C4.52456 11.9132 4.53751 11.7417 4.55046 11.5702C4.55369 11.499 4.56017 11.4278 4.56664 11.3566C4.64108 10.4892 4.77378 9.56676 4.99386 8.64111H27.7143C28.6852 12.7191 27.9732 16.6968 27.9732 16.6968Z" fill="#3C2C23"/>
<path d="M27.9732 16.6968L27.9279 16.8133L27.889 16.9169C27.8599 16.9946 27.8211 17.0917 27.779 17.1985C27.7693 17.2276 27.7596 17.2535 27.7466 17.2826C27.5298 17.8555 27.1997 18.7067 27.0119 19.1792C27.0032 19.2029 26.987 19.2232 26.9658 19.2369C26.9445 19.2506 26.9194 19.257 26.8942 19.2552C26.869 19.2533 26.8451 19.2434 26.826 19.2267C26.807 19.2101 26.7938 19.1878 26.7886 19.1631C26.7886 19.1566 26.7854 19.1501 26.7854 19.1436C26.7433 18.9624 26.6883 18.7229 26.6236 18.4381C26.5491 18.1112 26.4617 17.7228 26.3646 17.3021C26.1769 16.4962 25.9568 15.564 25.7335 14.6643C25.6138 14.1756 25.4908 13.6998 25.3743 13.2564C25.2739 12.8874 25.1801 12.5444 25.0894 12.2401C25.0085 11.9618 24.9309 11.7126 24.8597 11.5087C24.837 11.4375 24.8143 11.3727 24.7917 11.3145C24.4583 10.4277 23.5392 9.91307 22.607 10.0814C21.1765 10.3403 18.898 10.6639 16.38 10.6639C16.3735 10.6639 16.3638 10.6607 16.3541 10.6607C16.3444 10.6607 16.3379 10.6639 16.3282 10.6639C13.8134 10.6639 11.5316 10.3403 10.1011 10.0814C9.16898 9.91307 8.2498 10.4277 7.91644 11.3145C7.68665 11.923 7.36623 13.101 7.04582 14.3795C7.00698 14.5348 6.96814 14.6902 6.9293 14.8488C6.86781 15.0883 6.80955 15.3342 6.75129 15.577C6.70275 15.7712 6.65743 15.9654 6.61212 16.1563C6.60889 16.1596 6.60889 16.1628 6.60889 16.1693C6.56358 16.3602 6.51826 16.5479 6.47619 16.7292C6.47295 16.7357 6.47295 16.7389 6.47295 16.7421C6.42764 16.9266 6.3888 17.1046 6.34673 17.2794C6.26258 17.6387 6.1849 17.9753 6.11693 18.2698C6.06839 18.4834 6.02631 18.6776 5.98747 18.8426C5.96158 18.9559 5.93893 19.0595 5.91951 19.1469C5.91627 19.1631 5.9098 19.176 5.90332 19.1857C5.85478 19.2602 5.73179 19.2569 5.69295 19.1631L4.84498 16.9784L4.82232 16.9169L4.7673 16.7745L4.73817 16.6968C4.73817 16.6968 4.40158 14.8229 4.50514 12.3275C4.50838 12.2466 4.51162 12.1625 4.51809 12.0783C4.52456 11.9132 4.53751 11.7417 4.55046 11.5702C4.55369 11.499 4.56017 11.4278 4.56664 11.3566C4.64108 10.4892 4.77378 9.56676 4.99386 8.64111H27.7143C28.6852 12.7191 27.9732 16.6968 27.9732 16.6968Z" fill="url(#paint0_radial_3966_14412)"/>
<path d="M24.7754 7.45336C23.2154 3.57277 21.6813 0.511017 19.7167 0.274751C19.1924 0.213257 17.8201 0.0384843 16.4316 0.0352478C14.9914 0.0352478 13.535 0.21002 12.9945 0.274751C11.0299 0.511017 9.49578 3.57277 7.93253 7.45013C7.08456 9.55387 25.6234 9.55387 24.7754 7.45336Z" fill="url(#paint1_linear_3966_14412)"/>
<path d="M29.3325 6.05515C26.2805 6.60859 21.183 7.25266 16.5386 7.27208H16.1696C11.5252 7.25266 6.42765 6.60859 3.37561 6.05515C0.741076 5.57614 0.647217 7.29797 0.647217 7.29797C0.647217 7.29797 1.48224 6.26552 2.94839 7.69606C5.22366 9.91632 8.92948 13.4409 16.1437 13.47C16.2149 13.47 16.2829 13.4668 16.3541 13.4668C16.4253 13.4668 16.4932 13.47 16.5644 13.47C23.7819 13.4377 27.4845 9.91632 29.7598 7.69606C31.2259 6.26552 32.0609 7.29797 32.0609 7.29797C32.0609 7.29797 31.9671 5.57614 29.3325 6.05515Z" fill="url(#paint2_linear_3966_14412)"/>
<path d="M16.354 6.93229C13.9136 6.93229 10.8454 6.68955 9.2854 6.55361C10.5347 5.94191 13.0592 4.96124 16.354 4.96124C19.6488 4.96124 22.17 5.94515 23.4225 6.55361C21.8625 6.68955 18.7943 6.93229 16.354 6.93229Z" fill="#78909C"/>
<path d="M16.3541 5.26869C18.7944 5.26869 20.8043 5.8189 22.1669 6.34322C20.5195 6.47268 18.2474 6.61832 16.3541 6.61832C14.4607 6.61832 12.1887 6.47268 10.5413 6.34322C12.3971 5.6336 14.3672 5.26943 16.3541 5.26869ZM16.3541 4.64728C11.441 4.64728 8.24658 6.7672 8.24658 6.7672C8.24658 6.7672 12.8975 7.24297 16.3541 7.24297C19.8107 7.24297 24.4616 6.7672 24.4616 6.7672C24.4616 6.7672 21.2671 4.64728 16.3541 4.64728Z" fill="#90A4AE"/>
<path d="M34.4819 33.3358V38.1874" stroke="#D18100" stroke-width="1.61826" stroke-miterlimit="10"/>
<path d="M34.8572 35.8441H34.1063C33.6564 35.8441 33.2939 35.8441 33.2939 35.0318V31.1447H35.6663V35.0318C35.6696 35.7211 35.3038 35.8441 34.8572 35.8441Z" fill="#636363"/>
<path d="M37.4756 30.2579C36.8801 30.2579 34.9706 30.2773 34.5401 30.2773C33.8539 30.2773 32.035 30.2158 31.2939 30.2158C28.8729 30.2158 28.8535 21.5775 28.8535 21.5775V29.575C28.8535 31.7402 29.9604 32.4328 31.9023 32.504H36.8801C38.6343 32.504 39.2589 31.3033 39.2589 29.8663L39.136 28.2933C39.1295 28.2965 38.6602 30.2579 37.4756 30.2579Z" fill="#616161"/>
<path d="M39.6246 10.4827C39.589 10.3468 39.3883 10.35 39.356 10.486L38.9838 12.0006L38.3365 28.8888C38.3365 28.8888 38.3332 28.9762 38.3332 29.0215C38.3332 29.52 37.9481 29.876 37.4497 29.876C36.9512 29.876 36.5402 29.5135 36.5402 29.0151C36.5402 28.9439 36.7344 12.0621 36.7344 12.0621L36.3492 10.4018C36.3136 10.2659 36.1162 10.2659 36.0806 10.3986L35.6437 12.033L35.443 28.9115C35.443 29.4617 35.1097 29.8792 34.5594 29.8792C34.0092 29.8792 33.5626 29.4326 33.5626 28.8824L33.4655 11.9974L33.0836 10.3986C33.048 10.2659 32.8538 10.2659 32.815 10.3986L32.3295 12.0654L32.3392 28.85C32.3392 29.4196 31.9443 29.8824 31.3747 29.8824C30.7403 29.8824 30.2743 29.4196 30.2743 28.85L29.614 12.0006L29.1803 10.3921C29.1447 10.2562 28.9861 10.282 28.9473 10.4147L28.5039 12.033L29.0217 29.3905C29.0217 30.8534 29.9539 31.9603 31.8958 32.0347H36.8736C38.6278 32.0347 39.301 30.8275 39.301 29.3905L40 12.1074L39.6246 10.4827Z" fill="url(#paint3_linear_3966_14412)"/>
<path d="M30.6789 37.1549C30.6789 31.3971 22.4064 30.0702 19.4611 29.7821L16.9787 33.1934H15.901L13.4574 29.7756C10.2694 30.0766 7.5572 30.834 5.5991 31.97C3.34 33.2808 2.19751 35.0253 2.19751 37.1517V38.1874H30.6854V37.1549H30.6789Z" fill="url(#paint4_linear_3966_14412)"/>
<path d="M26.7661 36.9186L24.4455 35.1321L24.5264 35.0058L16.1147 35.1644L8.38907 35.0058L8.46999 35.1327L0 36.9186L6.09438 38.1873H26.8211L26.7661 36.9186Z" fill="url(#paint5_linear_3966_14412)"/>
<path d="M10.6286 32.7274L10.593 30.1964C10.593 30.1964 8.71909 30.5848 8.0459 30.8761L7.10083 33.0122L8.32424 34.9088L10.6286 32.7274Z" fill="url(#paint6_linear_3966_14412)"/>
<path d="M22.2864 32.7274L22.322 30.1964C22.322 30.1964 24.1959 30.5848 24.8691 30.8761L25.8142 33.0122L24.5875 34.9088L22.2864 32.7274Z" fill="url(#paint7_linear_3966_14412)"/>
<path d="M23.3125 35.4719L24.9858 35.7891C25.2007 35.829 25.4227 35.7823 25.6033 35.6592C25.784 35.5362 25.9087 35.3467 25.9503 35.1321C25.9901 34.9172 25.9434 34.6952 25.8204 34.5146C25.6973 34.3339 25.5079 34.2092 25.2933 34.1676L23.62 33.8504C23.4051 33.8106 23.1831 33.8573 23.0024 33.9803C22.8218 34.1034 22.6971 34.2929 22.6555 34.5075C22.5713 34.9573 22.8626 35.3878 23.3125 35.4719ZM9.60259 35.4719L7.9293 35.7891C7.48266 35.8733 7.04897 35.5787 6.96482 35.1321C6.92496 34.9172 6.97165 34.6952 7.09472 34.5146C7.21778 34.3339 7.40724 34.2092 7.62183 34.1676L9.29512 33.8504C9.51004 33.8106 9.732 33.8573 9.91266 33.9803C10.0933 34.1034 10.218 34.2929 10.2596 34.5075C10.3438 34.9573 10.0525 35.3878 9.60259 35.4719Z" fill="#BDBDBD"/>
<path d="M13.4119 29.7821C12.5671 29.863 11.758 29.9795 10.9845 30.1219L10.9036 36.9025L16.4348 33.1707L13.4119 29.7821Z" fill="url(#paint8_linear_3966_14412)"/>
<path d="M21.8853 30.1316C20.9273 29.9504 20.0761 29.8436 19.4611 29.7821L16.4382 33.174L21.9695 36.9057L21.8853 30.1316Z" fill="url(#paint9_linear_3966_14412)"/>
<defs>
<radialGradient id="paint0_radial_3966_14412" cx="0" cy="0" r="1" gradientUnits="userSpaceOnUse" gradientTransform="translate(16.355 16.2468) scale(11.4686 12.9389)">
<stop offset="0.794" stop-color="#554138" stop-opacity="0"/>
<stop offset="1" stop-color="#554138"/>
</radialGradient>
<linearGradient id="paint1_linear_3966_14412" x1="16.3543" y1="0.505839" x2="16.3543" y2="8.20391" gradientUnits="userSpaceOnUse">
<stop offset="0.003" stop-color="#FFF59D"/>
<stop offset="0.553" stop-color="#FEE565"/>
<stop offset="0.996" stop-color="#FDD835"/>
</linearGradient>
<linearGradient id="paint2_linear_3966_14412" x1="16.3541" y1="6.64646" x2="16.3541" y2="16.0414" gradientUnits="userSpaceOnUse">
<stop offset="0.003" stop-color="#FFF59D"/>
<stop offset="0.553" stop-color="#FEE565"/>
<stop offset="0.996" stop-color="#FDD835"/>
</linearGradient>
<linearGradient id="paint3_linear_3966_14412" x1="34.2546" y1="33.1604" x2="34.2546" y2="14.1717" gradientUnits="userSpaceOnUse">
<stop stop-color="#757575"/>
<stop offset="0.482" stop-color="#9E9E9E"/>
</linearGradient>
<linearGradient id="paint4_linear_3966_14412" x1="16.435" y1="38.1874" x2="16.435" y2="29.7782" gradientUnits="userSpaceOnUse">
<stop stop-color="#709E3B"/>
<stop offset="0.328" stop-color="#73A13E"/>
<stop offset="0.595" stop-color="#7DAB47"/>
<stop offset="0.839" stop-color="#8DBC57"/>
<stop offset="1" stop-color="#9CCC65"/>
</linearGradient>
<linearGradient id="paint5_linear_3966_14412" x1="16.4581" y1="38.355" x2="16.4581" y2="30.3957" gradientUnits="userSpaceOnUse">
<stop stop-color="#1E88E5"/>
<stop offset="1" stop-color="#1565C0"/>
</linearGradient>
<linearGradient id="paint6_linear_3966_14412" x1="8.86603" y1="38.1848" x2="8.86603" y2="30.6188" gradientUnits="userSpaceOnUse">
<stop stop-color="#1E88E5"/>
<stop offset="1" stop-color="#1565C0"/>
</linearGradient>
<linearGradient id="paint7_linear_3966_14412" x1="24.0493" y1="38.1848" x2="24.0493" y2="30.6188" gradientUnits="userSpaceOnUse">
<stop stop-color="#1E88E5"/>
<stop offset="1" stop-color="#1565C0"/>
</linearGradient>
<linearGradient id="paint8_linear_3966_14412" x1="13.6692" y1="30.5068" x2="13.6692" y2="35.2894" gradientUnits="userSpaceOnUse">
<stop stop-color="#AED581"/>
<stop offset="1" stop-color="#8BC34A"/>
</linearGradient>
<linearGradient id="paint9_linear_3966_14412" x1="19.2006" y1="29.8009" x2="19.2006" y2="35.4434" gradientUnits="userSpaceOnUse">
<stop stop-color="#AED581"/>
<stop offset="1" stop-color="#8BC34A"/>
</linearGradient>
</defs>
</svg>
