<svg width="32" height="32" viewBox="0 0 32 32" fill="none" xmlns="http://www.w3.org/2000/svg">
<circle cx="16" cy="16.3882" r="15.5" fill="#3D6111"/>
<path d="M15.8481 12.7873C13.9475 12.7873 12.3964 14.3384 12.3964 16.2391C12.3964 18.1397 13.9475 19.6908 15.8481 19.6908C17.7487 19.6908 19.2998 18.1397 19.2998 16.2391C19.2998 14.3384 17.7487 12.7873 15.8481 12.7873ZM26.2006 16.2391C26.2006 14.8097 26.2135 13.3932 26.1333 11.9664C26.053 10.3092 25.6749 8.83836 24.4631 7.62649C23.2487 6.41203 21.7805 6.03655 20.1232 5.95628C18.6939 5.87601 17.2775 5.88895 15.8507 5.88895C14.4213 5.88895 13.0049 5.87601 11.5781 5.95628C9.92091 6.03655 8.45012 6.41462 7.23827 7.62649C6.02383 8.84095 5.64837 10.3092 5.5681 11.9664C5.48782 13.3958 5.50077 14.8123 5.50077 16.2391C5.50077 17.6659 5.48782 19.0849 5.5681 20.5117C5.64837 22.1689 6.02642 23.6398 7.23827 24.8516C8.45271 26.0661 9.92091 26.4416 11.5781 26.5218C13.0075 26.6021 14.4239 26.5892 15.8507 26.5892C17.28 26.5892 18.6965 26.6021 20.1232 26.5218C21.7805 26.4416 23.2512 26.0635 24.4631 24.8516C25.6775 23.6372 26.053 22.1689 26.1333 20.5117C26.2161 19.0849 26.2006 17.6684 26.2006 16.2391ZM15.8481 21.5501C12.9091 21.5501 10.5372 19.1781 10.5372 16.2391C10.5372 13.3 12.9091 10.9281 15.8481 10.9281C18.7871 10.9281 21.159 13.3 21.159 16.2391C21.159 19.1781 18.7871 21.5501 15.8481 21.5501ZM21.3765 11.9509C20.6903 11.9509 20.1362 11.3968 20.1362 10.7105C20.1362 10.0243 20.6903 9.47019 21.3765 9.47019C22.0627 9.47019 22.6168 10.0243 22.6168 10.7105C22.617 10.8735 22.5851 11.0349 22.5228 11.1855C22.4606 11.336 22.3692 11.4728 22.254 11.5881C22.1388 11.7033 22.002 11.7946 21.8514 11.8569C21.7008 11.9192 21.5394 11.9511 21.3765 11.9509Z" fill="#F7FDEF"/>
</svg>
